<svg xmlns="http://www.w3.org/2000/svg" width="25" height="22.58" viewBox="0 0 25 22.58"><defs><style>.a{fill:#26a3eb;}</style></defs><path class="a" d="M24.84,14.723,13.8,2.525a1.741,1.741,0,0,0-1.3-.588h0a1.745,1.745,0,0,0-1.3.588L.161,14.723a.624.624,0,1,0,.926.838l2.661-2.941V22.642a1.877,1.877,0,0,0,1.875,1.875H19.375a1.877,1.877,0,0,0,1.875-1.875V12.619l2.661,2.941a.625.625,0,1,0,.926-.839ZM15,23.267H10V17.642a.625.625,0,0,1,.625-.625h3.75a.625.625,0,0,1,.625.625Zm5-.625a.625.625,0,0,1-.625.625H16.251V17.642a1.877,1.877,0,0,0-1.875-1.875h-3.75a1.877,1.877,0,0,0-1.875,1.875v5.625H5.625A.625.625,0,0,1,5,22.642v-11.4l7.125-7.875a.487.487,0,0,1,.75,0L20,11.238Z" transform="translate(0 -1.937)"/></svg>